<svg xmlns="http://www.w3.org/2000/svg" xmlns:xlink="http://www.w3.org/1999/xlink" width="400" zoomAndPan="magnify" viewBox="0 0 300 299.999988" height="400" preserveAspectRatio="xMidYMid meet" version="1.0"><defs><clipPath id="98d9018136"><path d="M 3.566406 0 L 297 0 L 297 300 L 3.566406 300 Z M 3.566406 0 " clip-rule="nonzero"/></clipPath><clipPath id="0878385477"><path d="M 281.816406 67.914062 C 279.679688 63.457031 277.363281 59 274.6875 54.902344 C 271.835938 50.625 268.984375 45.988281 265.242188 42.425781 C 261.675781 39.039062 257.753906 35.828125 253.832031 32.796875 C 246.167969 26.738281 237.789062 21.390625 229.410156 16.398438 C 219.785156 10.515625 209.089844 7.488281 198.21875 4.457031 C 191.621094 2.671875 184.847656 1.246094 177.898438 0.355469 C 172.90625 -0.355469 167.558594 0 162.386719 0.535156 C 155.4375 1.070312 148.484375 1.605469 141.53125 2.851562 C 136.363281 3.03125 131.371094 3.207031 126.023438 3.742188 C 123.351562 3.921875 120.675781 4.277344 118.003906 4.632812 C 116.222656 4.992188 114.617188 5.347656 113.011719 5.703125 C 106.417969 7.308594 100.179688 10.160156 94.472656 13.191406 C 82.886719 19.25 71.835938 26.382812 61.675781 34.402344 C 57.398438 37.789062 53.296875 41.355469 49.199219 45.097656 C 41.890625 51.871094 35.828125 59.894531 30.304688 68.09375 C 26.203125 73.976562 22.816406 80.75 19.964844 87.164062 C 17.824219 91.980469 15.507812 96.792969 14.082031 101.960938 C 10.160156 114.617188 7.128906 127.449219 5.167969 140.464844 C 4.457031 145.632812 4.101562 150.800781 3.921875 156.148438 L 3.921875 163.28125 C 4.101562 167.734375 4.277344 173.261719 5.167969 177.71875 C 6.0625 182.886719 6.953125 188.234375 8.378906 193.226562 C 11.585938 203.566406 14.972656 214.082031 20.5 223.53125 C 23.351562 228.34375 26.382812 233.15625 29.589844 237.613281 C 33.691406 243.671875 37.789062 249.554688 42.960938 254.722656 C 49.199219 261.140625 56.507812 266.84375 63.992188 271.835938 C 79.679688 282.175781 98.394531 288.058594 116.398438 293.046875 C 120.675781 294.296875 125.132812 295.367188 129.589844 296.257812 C 136.542969 297.683594 143.492188 299.285156 150.445312 299.644531 C 155.972656 300 161.675781 299.464844 167.203125 299.109375 C 174.6875 298.574219 182.175781 297.859375 189.660156 296.257812 C 196.96875 294.652344 203.921875 292.15625 210.695312 289.125 C 221.390625 284.492188 231.730469 278.074219 239.570312 269.339844 C 248.128906 259.714844 256.328125 249.910156 263.28125 239.039062 C 270.054688 228.519531 275.757812 217.289062 281.285156 205.882812 C 285.738281 196.613281 290.195312 186.988281 292.511719 176.828125 C 294.117188 169.875 295.542969 162.746094 296.257812 155.792969 C 296.792969 150.445312 296.96875 145.277344 296.96875 140.105469 C 296.96875 127.449219 296.257812 114.796875 294.117188 102.316406 C 293.226562 97.328125 291.980469 92.511719 290.195312 87.878906 C 287.34375 81.285156 285.027344 74.511719 281.816406 67.914062 Z M 281.816406 67.914062 " clip-rule="nonzero"/></clipPath></defs><g clip-path="url(#98d9018136)"><g clip-path="url(#0878385477)"><path fill="#000000" d="M 3.566406 0 L 296.433594 0 L 296.433594 300 L 3.566406 300 Z M 3.566406 0 " fill-opacity="1" fill-rule="nonzero"/></g></g></svg>