<svg xmlns="http://www.w3.org/2000/svg" xmlns:xlink="http://www.w3.org/1999/xlink" width="400" zoomAndPan="magnify" viewBox="0 0 300 299.999988" height="400" preserveAspectRatio="xMidYMid meet" version="1.0"><defs><clipPath id="f7375c8fa1"><path d="M 1 0 L 300 0 L 300 299.898438 L 1 299.898438 Z M 1 0 " clip-rule="nonzero"/></clipPath></defs><g clip-path="url(#f7375c8fa1)"><path fill="#000000" d="M 297.953125 94.054688 C 296.253906 84.175781 293.496094 74.609375 289.382812 65.429688 C 283.265625 51.761719 274.898438 39.722656 263.898438 29.511719 C 254.820312 21.078125 244.589844 14.460938 233.261719 9.488281 C 219.921875 3.632812 205.933594 0.476562 191.429688 -0.25 C 179.371094 -0.863281 167.386719 0.0429688 155.519531 2.480469 C 137.769531 6.121094 121.214844 12.773438 105.574219 21.832031 C 102.308594 23.71875 99.253906 25.9375 95.609375 27.222656 C 85.402344 30.832031 75.769531 35.65625 66.644531 41.5 C 56.949219 47.707031 48.09375 54.933594 40.101562 63.238281 C 35.054688 68.484375 30.425781 74.0625 26.230469 80 C 19.214844 89.933594 13.625 100.636719 9.398438 112.050781 C 4.542969 125.167969 1.828125 138.71875 1.171875 152.660156 C 0.925781 157.753906 1 162.859375 1.335938 167.972656 C 1.703125 173.597656 2.339844 179.171875 3.421875 184.683594 C 6.929688 202.546875 13.679688 219.117188 23.6875 234.324219 C 31.058594 245.507812 39.839844 255.441406 50.011719 264.171875 C 59.253906 272.09375 69.324219 278.726562 80.203125 284.164062 C 88.835938 288.472656 97.808594 291.925781 107.125 294.476562 C 118.878906 297.691406 130.828125 299.539062 143.023438 299.859375 C 147.230469 299.976562 151.425781 299.859375 155.621094 299.761719 C 158.664062 299.691406 161.714844 299.460938 164.734375 299.089844 C 172.398438 298.140625 179.988281 296.757812 187.449219 294.738281 C 197.484375 292.015625 207.164062 288.347656 216.414062 283.628906 C 226.476562 278.492188 235.84375 272.292969 244.507812 265.019531 C 251.960938 258.761719 258.699219 251.839844 264.734375 244.242188 C 272.296875 234.714844 278.449219 224.320312 283.328125 213.171875 C 287.152344 204.417969 290.007812 195.339844 291.964844 186.011719 C 293.964844 176.472656 294.890625 166.800781 294.585938 157.03125 C 294.539062 155.59375 294.773438 154.210938 295.117188 152.824219 C 298.070312 140.898438 299.898438 128.828125 299.648438 115.839844 C 299.917969 108.957031 299.226562 101.464844 297.953125 94.054688 Z M 289.425781 177.269531 C 288.269531 185.445312 286.488281 193.488281 283.789062 201.3125 C 279.820312 212.8125 274.503906 223.640625 267.621094 233.695312 C 263 240.445312 257.863281 246.734375 252.171875 252.613281 C 243.328125 261.742188 233.40625 269.46875 222.472656 275.910156 C 209.125 283.769531 194.867188 289.324219 179.753906 292.664062 C 173.902344 293.953125 167.992188 294.828125 162.027344 295.425781 C 157.410156 295.882812 152.796875 295.964844 148.171875 296.046875 C 129.425781 296.359375 111.40625 292.75 93.972656 286.078125 C 79.957031 280.714844 67.113281 273.222656 55.472656 263.769531 C 43.128906 253.734375 32.742188 241.941406 24.449219 228.3125 C 17.195312 216.382812 11.898438 203.679688 8.601562 190.136719 C 6.796875 182.734375 5.671875 175.21875 5.15625 167.597656 C 4.804688 162.484375 4.738281 157.371094 4.992188 152.285156 C 5.523438 141.765625 7.328125 131.429688 10.351562 121.320312 C 12.871094 112.925781 16.15625 104.84375 20.257812 97.109375 C 25 88.152344 30.636719 79.816406 37.246094 72.105469 C 46.25 61.589844 56.554688 52.597656 68.171875 45.105469 C 73.027344 41.96875 77.996094 39 83.304688 36.664062 C 83.410156 36.753906 83.507812 36.855469 83.605469 36.949219 C 80.128906 39.984375 76.546875 42.914062 73.183594 46.078125 C 62.25 56.359375 52.636719 67.769531 44.523438 80.40625 C 37.039062 92.054688 30.9375 104.371094 26.382812 117.464844 C 23.125 126.824219 20.734375 136.390625 19.230469 146.167969 C 18.472656 151.09375 18.085938 156.066406 17.785156 161.0625 C 17.515625 165.699219 17.628906 170.3125 17.867188 174.933594 C 18.367188 184.78125 19.996094 194.441406 22.765625 203.910156 C 26.171875 215.566406 31.261719 226.445312 38.160156 236.445312 C 47.933594 250.59375 60.390625 261.753906 75.488281 269.996094 C 85.648438 275.53125 96.410156 279.363281 107.707031 281.667969 C 114.863281 283.125 122.117188 283.851562 129.445312 284.0625 C 151.472656 284.710938 172.4375 280.175781 192.628906 271.582031 C 207.546875 265.234375 221.269531 256.890625 233.863281 246.726562 C 244.214844 238.363281 253.53125 228.96875 261.886719 218.589844 C 269.804688 208.75 276.566406 198.191406 282.308594 186.960938 C 285.035156 181.621094 287.433594 176.121094 289.539062 170.503906 C 289.660156 170.171875 289.792969 169.847656 290.097656 169.074219 C 290.289062 172.152344 289.785156 174.71875 289.425781 177.269531 Z M 294.917969 132.417969 C 294.589844 134.96875 294.238281 137.519531 293.902344 140.066406 C 293.714844 139.960938 293.523438 139.863281 293.339844 139.761719 C 292.496094 133.457031 291.113281 127.257812 289.347656 121.148438 C 286.859375 112.535156 283.636719 104.195312 279.417969 96.28125 C 274.089844 86.273438 267.820312 76.898438 260.335938 68.332031 C 252.253906 59.101562 243.167969 51.015625 233.0625 44.097656 C 222.640625 36.964844 211.46875 31.257812 199.570312 26.960938 C 190.351562 23.632812 180.898438 21.226562 171.230469 19.714844 C 166.613281 18.996094 161.960938 18.578125 157.292969 18.265625 C 152.707031 17.953125 148.132812 17.976562 143.5625 18.039062 C 134.34375 18.167969 125.246094 19.386719 116.226562 21.199219 C 115.898438 21.152344 115.515625 21.273438 115.292969 20.898438 C 129.941406 13.367188 145.320312 8.082031 161.582031 5.304688 C 171.324219 3.636719 181.128906 3.046875 190.957031 3.570312 C 205.453125 4.335938 219.421875 7.511719 232.726562 13.472656 C 246.085938 19.460938 257.707031 27.832031 267.523438 38.640625 C 278.746094 51 286.476562 65.347656 291.089844 81.375 C 293.519531 89.777344 295.03125 98.332031 295.570312 107.074219 C 296.09375 115.546875 295.984375 123.992188 294.917969 132.417969 Z M 294.917969 132.417969 " fill-opacity="1" fill-rule="nonzero"/></g></svg>